<svg version="1.1" id="Layer_1" xmlns="http://www.w3.org/2000/svg" xmlns:xlink="http://www.w3.org/1999/xlink" x="0px" y="0px"
	 width="100%" viewBox="0 0 1414 2000" enable-background="new 0 0 1414 2000" xml:space="preserve">
<path fill="#000000" opacity="1.000000" stroke="none" 
	d="
M649.000000,2001.000000 
	C432.666687,2001.000000 216.833389,2001.000000 1.000058,2001.000000 
	C1.000039,1334.333496 1.000039,667.666870 1.000019,1.000237 
	C472.333160,1.000158 943.666321,1.000158 1414.999634,1.000079 
	C1414.999756,667.666443 1414.999756,1334.332886 1414.999878,2000.999634 
	C1159.833374,2001.000000 904.666687,2001.000000 649.000000,2001.000000 
M920.500000,1284.000000 
	C1030.927124,1284.000000 1141.354248,1284.000000 1251.711304,1284.000000 
	C1251.711304,1151.022339 1251.711304,1018.618835 1251.711304,886.286865 
	C922.354858,886.286865 593.287170,886.286865 264.288635,886.286865 
	C264.288635,1018.977417 264.288635,1151.380981 264.288635,1284.000000 
	C482.884857,1284.000000 701.192444,1284.000000 920.500000,1284.000000 
z"/>
<path fill="#FFFFFF" opacity="1.000000" stroke="none" 
	d="
M920.000000,1284.000000 
	C701.192444,1284.000000 482.884857,1284.000000 264.288635,1284.000000 
	C264.288635,1151.380981 264.288635,1018.977417 264.288635,886.286865 
	C593.287170,886.286865 922.354858,886.286865 1251.711304,886.286865 
	C1251.711304,1018.618835 1251.711304,1151.022339 1251.711304,1284.000000 
	C1141.354248,1284.000000 1030.927124,1284.000000 920.000000,1284.000000 
M1008.500000,1244.876099 
	C1034.331177,1244.876831 1060.162476,1244.854614 1085.993652,1244.887451 
	C1099.775269,1244.904907 1112.564941,1241.364380 1124.153564,1233.958618 
	C1138.652954,1224.692993 1149.203857,1211.830933 1151.650513,1194.771973 
	C1153.854858,1179.403320 1153.280029,1163.548340 1153.541260,1148.022949 
	C1154.684692,1080.047119 1154.037109,1012.041077 1154.039185,944.046021 
	C1154.039307,942.685791 1154.039307,941.325562 1154.039307,939.965393 
	C1152.736206,941.137268 1152.274780,942.336975 1151.811279,943.535828 
	C1138.999634,976.671631 1117.675171,1002.776428 1087.161987,1021.090515 
	C1067.834351,1032.691162 1046.829102,1039.962891 1024.290894,1040.884399 
	C998.197144,1041.951294 972.047913,1041.902466 945.922546,1041.914429 
	C776.434143,1041.992188 606.945801,1041.946289 437.457397,1041.996460 
	C432.676300,1041.997925 427.845612,1042.291870 423.122467,1043.006836 
	C394.193207,1047.387329 370.116547,1075.588135 370.017029,1104.153320 
	C369.928162,1129.651245 369.681396,1155.156006 370.192291,1180.644043 
	C370.344910,1188.259277 371.493530,1196.393066 374.456543,1203.317627 
	C385.561371,1229.269531 408.443756,1244.690063 435.539429,1244.727295 
	C626.192627,1244.989136 816.846436,1244.872070 1008.500000,1244.876099 
z"/>
<path fill="#919191" opacity="1.000000" stroke="none" 
	d="
M1008.000000,1244.875977 
	C816.846436,1244.872070 626.192627,1244.989136 435.539429,1244.727295 
	C408.443756,1244.690063 385.561371,1229.269531 374.456543,1203.317627 
	C371.493530,1196.393066 370.344910,1188.259277 370.192291,1180.644043 
	C369.681396,1155.156006 369.928162,1129.651245 370.017029,1104.153320 
	C370.116547,1075.588135 394.193207,1047.387329 423.122467,1043.006836 
	C427.845612,1042.291870 432.676300,1041.997925 437.457397,1041.996460 
	C606.945801,1041.946289 776.434143,1041.992188 945.922546,1041.914429 
	C972.047913,1041.902466 998.197144,1041.951294 1024.290894,1040.884399 
	C1046.829102,1039.962891 1067.834351,1032.691162 1087.161987,1021.090515 
	C1117.675171,1002.776428 1138.999634,976.671631 1151.811279,943.535828 
	C1152.274780,942.336975 1152.736206,941.137268 1154.039307,939.965393 
	C1154.039307,941.325562 1154.039307,942.685791 1154.039185,944.046021 
	C1154.037109,1012.041077 1154.684692,1080.047119 1153.541260,1148.022949 
	C1153.280029,1163.548340 1153.854858,1179.403320 1151.650513,1194.771973 
	C1149.203857,1211.830933 1138.652954,1224.692993 1124.153564,1233.958618 
	C1112.564941,1241.364380 1099.775269,1244.904907 1085.993652,1244.887451 
	C1060.162476,1244.854614 1034.331177,1244.876831 1008.000000,1244.875977 
z"/>
</svg>